<svg width="24" height="14" viewBox="0 0 24 14" fill="none" xmlns="http://www.w3.org/2000/svg">
<path d="M16.7654 0L24 7.00167L21.9631 8.97432L14.7285 1.97266L16.7654 0Z" fill="#1F2933"/>
<path d="M14.7151 12.0381L21.9103 4.99847L23.9583 6.96039L16.7631 14L14.7151 12.0381Z" fill="#1F2933"/>
<path d="M8.10784 7.06822L10.6375 4.6672L13.1176 7.11626L10.5879 9.51728L8.10784 7.06822Z" fill="#1F2933"/>
<path d="M2.52 7.06822L5.0497 4.6672L7.52977 7.11626L5.00008 9.51728L2.52 7.06822Z" fill="#1F2933"/>
<path d="M13.1145 7.06822L15.6442 4.6672L18.1242 7.11626L15.5945 9.51728L13.1145 7.06822Z" fill="#1F2933"/>
<path d="M0 7.06822L2.52969 4.6672L5.00977 7.11626L2.48007 9.51728L0 7.06822Z" fill="#1F2933"/>
<path d="M10.5945 7.06822L13.1242 4.6672L15.6042 7.11626L13.0745 9.51728L10.5945 7.06822Z" fill="#1F2933"/>
<path d="M5.00662 7.06822L7.53632 4.6672L10.0164 7.11626L7.4867 9.51728L5.00662 7.06822Z" fill="#1F2933"/>
<path d="M15.6011 7.06822L18.1308 4.6672L20.6109 7.11626L18.0812 9.51728L15.6011 7.06822Z" fill="#1F2933"/>
</svg>
